<svg width="52" height="41" viewBox="0 0 52 41" fill="none" xmlns="http://www.w3.org/2000/svg">
<g clip-path="url(#clip0_15_38)">
<path d="M28.609 1.44141C28.1306 0.560547 27.1194 0 26.009 0C24.8986 0 23.8965 0.560547 23.409 1.44141L17.6042 12.0357L4.64028 13.7334C3.55694 13.8775 2.65417 14.5502 2.32014 15.4711C1.98611 16.392 2.25694 17.409 3.03333 18.0896L12.4403 26.3457L10.2194 38.0131C10.0389 38.974 10.4903 39.951 11.384 40.5195C12.2778 41.0881 13.4604 41.1602 14.4354 40.7037L26.0181 35.2184L37.6007 40.7037C38.5757 41.1602 39.7583 41.0961 40.6521 40.5195C41.5458 39.943 41.9972 38.974 41.8167 38.0131L39.5868 26.3457L48.9938 18.0896C49.7701 17.409 50.05 16.392 49.7069 15.4711C49.3639 14.5502 48.4701 13.8775 47.3868 13.7334L34.4139 12.0357L28.609 1.44141Z" fill="#E1F121"/>
</g>
<defs>
<clipPath id="clip0_15_38">
<rect width="52" height="41" fill="white"/>
</clipPath>
</defs>
</svg>
